<svg xmlns="http://www.w3.org/2000/svg" viewBox="0 0 64 64"><circle cx="32" cy="32" r="28" fill="#25D366"/><path fill="#fff" d="M44 36.5c-.3-.1-1.9-1-2.2-1.1-.3-.1-.5-.2-.7.2-.2.3-.9 1.1-1.1 1.3-.2.2-.4.2-.7.1-.3-.1-1.5-.5-2.9-1.9-1.1-1-1.8-2.2-2-2.6-.2-.4 0-.6.2-.8.2-.2.3-.4.5-.6.2-.2.2-.4.3-.7.1-.3.1-.5 0-.7-.1-.2-.7-1.8-1-2.5-.3-.7-.5-.6-.7-.6h-.6c-.2 0-.6.1-.9.4-.3.3-1.2 1.1-1.2 2.8s1.2 3.2 1.4 3.4c.2.2 2.4 3.7 5.8 5.1.8.3 1.4.6 1.9.7.8.3 1.6.2 2.2.1.7-.1 2-.7 2.3-1.6.3-.8.3-1.4.2-1.7-.1-.1-.3-.2-.6-.3z"/></svg>